<mxfile host="app.diagrams.net" modified="2023-09-06T07:15:55.502Z" agent="Mozilla/5.0 (Windows NT 10.0; Win64; x64) AppleWebKit/537.36 (KHTML, like Gecko) Chrome/116.0.0.0 Safari/537.36" version="21.7.2" etag="IGyJ9ymLS-LouiJFwpEX" type="github">
  <diagram name="Trang-1" id="De1fzXD7VVHr8VW1NwQd">
    <mxGraphModel>
      <root>
        <mxCell id="0" />
        <mxCell id="1" parent="0" />
      </root>
    </mxGraphModel>
  </diagram>
</mxfile>
